<?xml version="1.0" encoding="UTF-8" standalone="no"?>
<!-- Generator: Adobe Illustrator 27.5.0, SVG Export Plug-In . SVG Version: 6.00 Build 0)  -->

<svg
   version="1.1"
   id="background"
   x="0px"
   y="0px"
   viewBox="0 0 600 400"
   style="enable-background:new 0 0 600 400;"
   xml:space="preserve"
   sodipodi:docname="bg-tech.svg"
   inkscape:version="1.1.2 (0a00cf5339, 2022-02-04)"
   xmlns:inkscape="http://www.inkscape.org/namespaces/inkscape"
   xmlns:sodipodi="http://sodipodi.sourceforge.net/DTD/sodipodi-0.dtd"
   xmlns="http://www.w3.org/2000/svg"
   xmlns:svg="http://www.w3.org/2000/svg"><defs
   id="defs160">
	<linearGradient
   id="SVGID_1_"
   gradientUnits="userSpaceOnUse"
   x1="781.48053"
   y1="-167.0302"
   x2="-29.2864"
   y2="451.0134">
		<stop
   offset="0"
   style="stop-color:#1A2A51"
   id="stop2" />
		<stop
   offset="1"
   style="stop-color:#1A182E"
   id="stop4" />
	</linearGradient>
	
	
</defs><sodipodi:namedview
   id="namedview158"
   pagecolor="#ffffff"
   bordercolor="#666666"
   borderopacity="1.0"
   inkscape:pageshadow="2"
   inkscape:pageopacity="0.0"
   inkscape:pagecheckerboard="0"
   showgrid="false"
   inkscape:zoom="1.4937631"
   inkscape:cx="280.83436"
   inkscape:cy="214.22407"
   inkscape:window-width="1920"
   inkscape:window-height="1016"
   inkscape:window-x="0"
   inkscape:window-y="27"
   inkscape:window-maximized="1"
   inkscape:current-layer="background" />
<g
   id="g4098"><rect
     style="display:inline;fill:#0f172a;fill-opacity:1"
     width="600"
     height="400"
     id="rect7"
     x="0"
     y="0" /><g
     id="g153"
     style="display:inline;fill:#84cc16;fill-opacity:1">
		<g
   id="g79"
   style="fill:#84cc16;fill-opacity:1">
			<path
   style="fill:#84cc16;fill-opacity:1"
   d="m 171.5,252.1 c -1.71,-2.3 -4.96,-2.77 -7.25,-1.07 -2.16,1.6 -2.69,4.56 -1.34,6.81 L 0,375.28 v 1.24 L 163.51,258.65 c 0.8,0.89 1.86,1.49 3.07,1.67 0.25,0.04 0.51,0.06 0.77,0.06 1.1,0 2.17,-0.36 3.08,-1.03 2.29,-1.7 2.77,-4.95 1.07,-7.25 z m -1.67,6.45 c -0.9,0.67 -2,0.94 -3.11,0.78 -1.1,-0.16 -2.08,-0.75 -2.74,-1.64 -1.38,-1.86 -0.99,-4.48 0.86,-5.86 0.75,-0.56 1.62,-0.82 2.49,-0.82 1.28,0 2.55,0.58 3.37,1.69 1.37,1.85 0.98,4.48 -0.87,5.85 z"
   id="path9" />
			<path
   style="fill:#84cc16;fill-opacity:1"
   d="m 138.42,260.6 c -0.82,-1.11 -2.03,-1.84 -3.4,-2.04 -1.37,-0.2 -2.74,0.14 -3.85,0.97 -1.11,0.82 -1.84,2.03 -2.04,3.4 -0.18,1.2 0.09,2.39 0.7,3.42 L 0,359.64 v 1.22 l 130.41,-93.7 c 1.01,1.12 2.43,1.72 3.86,1.72 1.07,0 2.15,-0.34 3.08,-1.02 1.11,-0.83 1.84,-2.04 2.04,-3.41 0.2,-1.37 -0.14,-2.74 -0.97,-3.85 z m -0.02,3.7 c -0.16,1.11 -0.75,2.09 -1.65,2.75 -1.85,1.38 -4.47,0.99 -5.85,-0.86 -0.67,-0.9 -0.94,-2 -0.78,-3.11 0.16,-1.11 0.75,-2.08 1.65,-2.75 0.73,-0.54 1.59,-0.82 2.48,-0.82 0.21,0 0.42,0.01 0.62,0.04 1.11,0.16 2.08,0.75 2.75,1.65 0.67,0.89 0.94,2 0.78,3.1 z"
   id="path11" />
			<path
   style="fill:#84cc16;fill-opacity:1"
   d="m 129.65,331.31 c -1.7,-2.3 -4.96,-2.78 -7.25,-1.07 -2.16,1.6 -2.69,4.56 -1.34,6.81 L 32.85,400 h 1.73 l 87.06,-62.13 c 1.01,1.12 2.42,1.71 3.85,1.71 1.08,0 2.16,-0.33 3.09,-1.02 2.29,-1.7 2.77,-4.95 1.07,-7.25 z m -1.67,6.45 c -1.85,1.38 -4.48,0.99 -5.85,-0.86 -1.38,-1.86 -0.99,-4.48 0.86,-5.86 0.75,-0.56 1.62,-0.82 2.49,-0.82 1.28,0 2.55,0.58 3.37,1.69 1.37,1.85 0.98,4.48 -0.87,5.85 z"
   id="path13" />
			<path
   style="fill:#84cc16;fill-opacity:1"
   d="m 163.86,377.39 c -1.7,-2.3 -4.96,-2.78 -7.25,-1.07 -1.11,0.82 -1.84,2.03 -2.04,3.4 -0.18,1.2 0.09,2.39 0.7,3.41 L 131.63,400 h 1.74 l 22.5,-16.06 c 0.8,0.89 1.86,1.49 3.07,1.67 0.26,0.04 0.51,0.06 0.77,0.06 1.1,0 2.17,-0.35 3.08,-1.03 1.11,-0.82 1.83,-2.03 2.04,-3.4 0.2,-1.37 -0.14,-2.74 -0.97,-3.85 z m -0.02,3.7 c -0.17,1.11 -0.75,2.09 -1.65,2.75 -0.9,0.67 -2,0.95 -3.1,0.78 -1.11,-0.16 -2.09,-0.75 -2.75,-1.64 -0.67,-0.9 -0.95,-2 -0.78,-3.11 0.16,-1.11 0.75,-2.08 1.64,-2.75 0.75,-0.55 1.63,-0.82 2.49,-0.82 1.28,0 2.55,0.58 3.37,1.69 0.66,0.89 0.94,2 0.78,3.1 z"
   id="path15" />
			<path
   style="fill:#84cc16;fill-opacity:1"
   d="m 186.66,313.78 c -0.83,-1.11 -2.04,-1.83 -3.41,-2.03 -1.36,-0.21 -2.73,0.13 -3.84,0.96 -2.16,1.6 -2.69,4.56 -1.34,6.82 L 66.16,400 h 1.72 l 110.79,-79.67 c 0.8,0.9 1.86,1.5 3.07,1.67 0.26,0.04 0.51,0.06 0.77,0.06 1.1,0 2.17,-0.35 3.08,-1.02 1.11,-0.83 1.83,-2.04 2.04,-3.41 0.2,-1.37 -0.14,-2.73 -0.97,-3.85 z m -0.02,3.71 c -0.17,1.1 -0.75,2.08 -1.65,2.74 -0.9,0.67 -2,0.95 -3.11,0.78 -1.1,-0.16 -2.08,-0.74 -2.74,-1.64 -1.38,-1.85 -0.99,-4.48 0.86,-5.86 0.73,-0.54 1.6,-0.82 2.49,-0.82 0.2,0 0.41,0.01 0.62,0.04 1.1,0.17 2.08,0.75 2.75,1.65 0.66,0.9 0.94,2 0.78,3.11 z"
   id="path17" />
			<path
   style="fill:#84cc16;fill-opacity:1"
   d="m 70.33,251.41 c -0.83,-1.11 -2.03,-1.84 -3.4,-2.04 -1.37,-0.2 -2.74,0.14 -3.85,0.97 -1.12,0.82 -1.84,2.03 -2.04,3.4 -0.18,1.2 0.08,2.39 0.7,3.41 L 0,301.21 v 1.24 l 62.32,-44.48 c 1.01,1.12 2.42,1.71 3.85,1.71 1.08,0 2.16,-0.33 3.09,-1.02 1.11,-0.82 1.83,-2.03 2.04,-3.4 0.2,-1.37 -0.14,-2.74 -0.97,-3.85 z m -0.02,3.7 c -0.17,1.11 -0.75,2.08 -1.65,2.75 -1.85,1.38 -4.48,0.99 -5.85,-0.86 -0.67,-0.9 -0.95,-2.01 -0.78,-3.11 0.16,-1.11 0.75,-2.08 1.64,-2.75 0.73,-0.54 1.6,-0.83 2.49,-0.83 0.21,0 0.41,0.02 0.62,0.05 1.1,0.16 2.08,0.75 2.75,1.65 0.66,0.89 0.94,2 0.78,3.1 z"
   id="path19" />
			<path
   style="fill:#84cc16;fill-opacity:1"
   d="m 32.91,178.59 c -0.82,-1.11 -2.03,-1.83 -3.4,-2.03 -1.37,-0.21 -2.74,0.14 -3.85,0.96 -1.11,0.83 -1.84,2.04 -2.04,3.41 -0.18,1.2 0.09,2.38 0.7,3.41 L 0,201.7 v 1.22 l 24.9,-17.77 c 1.01,1.12 2.42,1.72 3.86,1.72 1.07,0 2.15,-0.33 3.08,-1.02 1.11,-0.83 1.84,-2.04 2.04,-3.41 0.2,-1.37 -0.14,-2.73 -0.97,-3.85 z m -0.02,3.71 c -0.16,1.1 -0.75,2.08 -1.65,2.75 -1.85,1.37 -4.48,0.98 -5.85,-0.87 -0.67,-0.9 -0.94,-2 -0.78,-3.11 0.16,-1.1 0.75,-2.08 1.64,-2.74 0.73,-0.55 1.6,-0.83 2.49,-0.83 0.21,0 0.41,0.01 0.62,0.05 1.11,0.16 2.08,0.74 2.75,1.64 0.67,0.9 0.94,2 0.78,3.11 z"
   id="path21" />
			<path
   style="fill:#84cc16;fill-opacity:1"
   d="m 103.6,201.91 c -0.82,-1.11 -2.03,-1.84 -3.4,-2.04 -1.37,-0.2 -2.74,0.14 -3.85,0.97 -1.11,0.82 -1.84,2.03 -2.04,3.4 -0.18,1.2 0.09,2.39 0.7,3.41 L 0,275.97 v 1.24 l 95.59,-68.74 c 1.01,1.12 2.42,1.71 3.86,1.71 1.07,0 2.15,-0.33 3.08,-1.02 1.11,-0.82 1.84,-2.03 2.04,-3.4 0.2,-1.37 -0.14,-2.74 -0.97,-3.85 z m -0.02,3.7 c -0.16,1.11 -0.75,2.08 -1.65,2.75 -1.85,1.38 -4.48,0.99 -5.85,-0.86 -0.67,-0.9 -0.95,-2.01 -0.78,-3.11 0.16,-1.11 0.75,-2.08 1.64,-2.75 0.73,-0.54 1.6,-0.83 2.49,-0.83 0.21,0 0.41,0.02 0.62,0.05 1.11,0.16 2.08,0.75 2.75,1.64 0.67,0.9 0.94,2.01 0.78,3.11 z"
   id="path23" />
			<path
   style="fill:#84cc16;fill-opacity:1"
   d="m 109.09,175.9 c -1.71,-2.3 -4.96,-2.78 -7.26,-1.08 -2.15,1.6 -2.68,4.56 -1.33,6.82 L 0,254.06 v 1.23 l 101.08,-72.83 c 1.01,1.12 2.42,1.71 3.85,1.71 1.08,0 2.16,-0.33 3.09,-1.02 2.29,-1.7 2.77,-4.96 1.07,-7.25 z m -1.67,6.45 c -1.85,1.37 -4.48,0.98 -5.85,-0.87 -1.38,-1.85 -0.99,-4.48 0.86,-5.85 1.85,-1.38 4.48,-0.99 5.86,0.86 1.37,1.85 0.98,4.48 -0.87,5.86 z"
   id="path25" />
			<path
   style="fill:#84cc16;fill-opacity:1"
   d="m 160.07,289.76 c -1.7,-2.3 -4.96,-2.78 -7.25,-1.07 -1.11,0.82 -1.84,2.03 -2.04,3.4 v 0.01 L 139.11,291.53 0,391.38 v 1.24 l 139.41,-100.07 11.32,0.55 c 0.05,1.02 0.39,2 1.02,2.84 1.01,1.37 2.58,2.09 4.16,2.09 1.08,0 2.16,-0.33 3.09,-1.02 2.29,-1.7 2.78,-4.95 1.07,-7.25 z m -1.67,6.45 c -1.85,1.38 -4.48,0.99 -5.85,-0.86 -0.67,-0.9 -0.95,-2.01 -0.78,-3.11 0.16,-1.11 0.75,-2.08 1.64,-2.75 0.75,-0.56 1.63,-0.82 2.49,-0.82 1.28,0 2.55,0.58 3.37,1.69 1.37,1.85 0.99,4.48 -0.87,5.85 z"
   id="path27" />
			<path
   style="fill:#84cc16;fill-opacity:1"
   d="m 199.46,283.86 c -0.83,-1.11 -2.04,-1.84 -3.41,-2.04 -1.37,-0.2 -2.74,0.14 -3.85,0.97 -2.16,1.6 -2.69,4.56 -1.33,6.82 l -39.91,29.63 -24.37,-3.6 -0.2,-0.03 L 8.44,400 h 1.72 l 116.48,-83.34 24.58,3.63 40.23,-29.86 c 1.01,1.11 2.42,1.7 3.85,1.7 1.07,0 2.16,-0.33 3.08,-1.01 2.3,-1.71 2.78,-4.96 1.08,-7.26 z m -1.67,6.45 c -1.85,1.38 -4.48,0.99 -5.86,-0.86 -1.37,-1.86 -0.99,-4.48 0.87,-5.86 0.73,-0.54 1.59,-0.82 2.48,-0.82 0.21,0 0.42,0.01 0.62,0.04 1.11,0.16 2.09,0.75 2.75,1.65 1.38,1.85 0.99,4.48 -0.86,5.85 z"
   id="path29" />
			<path
   style="fill:#84cc16;fill-opacity:1"
   d="m 229.48,324.3 c -0.83,-1.11 -2.04,-1.84 -3.41,-2.04 -1.37,-0.2 -2.73,0.14 -3.85,0.97 -2.15,1.6 -2.68,4.56 -1.33,6.82 l -39.91,29.63 -24.37,-3.6 -0.2,-0.03 L 94.98,400 h 1.72 l 59.96,-42.9 24.59,3.63 40.22,-29.87 c 1.01,1.12 2.42,1.71 3.85,1.71 1.08,0 2.16,-0.33 3.09,-1.02 2.29,-1.7 2.77,-4.96 1.07,-7.25 z m -1.67,6.45 c -1.85,1.38 -4.48,0.99 -5.86,-0.86 -1.37,-1.86 -0.98,-4.48 0.87,-5.86 0.73,-0.54 1.59,-0.83 2.49,-0.83 0.2,0 0.41,0.02 0.62,0.05 1.1,0.16 2.08,0.75 2.74,1.65 1.38,1.85 0.99,4.47 -0.86,5.85 z"
   id="path31" />
			<path
   style="fill:#84cc16;fill-opacity:1"
   d="m 123.74,240.83 c -1.7,-2.3 -4.96,-2.78 -7.25,-1.07 -1.11,0.82 -1.84,2.03 -2.04,3.4 -0.2,1.37 0.14,2.74 0.97,3.85 0.63,0.86 1.49,1.46 2.43,1.79 L 115.1,259.79 0,342.42 v 1.23 l 115.83,-83.15 0.15,-0.11 2.84,-11.35 c 0.25,0.04 0.51,0.06 0.77,0.06 1.07,0 2.16,-0.33 3.08,-1.02 2.3,-1.7 2.78,-4.96 1.07,-7.25 z m -1.66,6.45 c -1.86,1.38 -4.48,0.99 -5.86,-0.86 -0.67,-0.9 -0.94,-2.01 -0.78,-3.11 0.16,-1.11 0.75,-2.08 1.65,-2.75 0.74,-0.56 1.62,-0.82 2.49,-0.82 1.28,0 2.54,0.58 3.36,1.68 1.38,1.86 0.99,4.48 -0.86,5.86 z"
   id="path33" />
			<path
   style="fill:#84cc16;fill-opacity:1"
   d="m 66.11,173.59 c -1.71,-2.29 -4.96,-2.77 -7.26,-1.07 -1.11,0.83 -1.83,2.04 -2.04,3.41 -0.2,1.37 0.14,2.73 0.97,3.85 0.62,0.84 1.47,1.45 2.43,1.79 L 57.46,192.56 0,233.81 v 1.23 l 58.2,-41.78 0.14,-0.1 2.84,-11.35 c 0.26,0.04 0.52,0.06 0.77,0.06 1.11,0 2.18,-0.35 3.08,-1.02 2.3,-1.71 2.78,-4.96 1.08,-7.26 z m -1.67,6.46 c -0.9,0.66 -2,0.94 -3.11,0.78 -1.1,-0.17 -2.08,-0.75 -2.75,-1.65 -0.66,-0.9 -0.94,-2 -0.78,-3.11 0.17,-1.1 0.75,-2.08 1.65,-2.74 0.75,-0.56 1.62,-0.83 2.49,-0.83 1.28,0 2.54,0.59 3.36,1.69 1.38,1.85 0.99,4.48 -0.86,5.86 z"
   id="path35" />
			<path
   style="fill:#84cc16;fill-opacity:1"
   d="m 138.01,201.1 c -0.82,-1.11 -2.03,-1.83 -3.4,-2.04 -1.36,-0.2 -2.74,0.14 -3.85,0.97 -1.11,0.83 -1.84,2.03 -2.04,3.4 -0.18,1.21 0.09,2.4 0.71,3.42 L 90.13,236.03 85.85,261.69 0,323.11 v 1.23 l 86.6,-61.96 0.16,-0.12 4.29,-25.67 38.96,-28.92 c 1.01,1.11 2.42,1.71 3.85,1.71 1.07,0 2.15,-0.34 3.08,-1.02 1.11,-0.83 1.84,-2.04 2.04,-3.41 0.2,-1.37 -0.14,-2.74 -0.97,-3.85 z m -0.02,3.71 c -0.16,1.1 -0.75,2.08 -1.64,2.74 -1.86,1.38 -4.48,0.99 -5.86,-0.86 -0.67,-0.9 -0.94,-2 -0.78,-3.11 0.16,-1.1 0.75,-2.08 1.65,-2.75 0.73,-0.54 1.59,-0.82 2.48,-0.82 0.21,0 0.42,0.01 0.62,0.04 1.11,0.17 2.08,0.75 2.75,1.65 0.67,0.9 0.94,2 0.78,3.11 z"
   id="path37" />
			<path
   style="fill:#84cc16;fill-opacity:1"
   d="m 171.5,252.1 c -1.71,-2.3 -4.96,-2.77 -7.25,-1.07 -2.16,1.6 -2.69,4.56 -1.34,6.81 L 0,375.28 v 1.24 L 163.51,258.65 c 0.8,0.89 1.86,1.49 3.07,1.67 0.25,0.04 0.51,0.06 0.77,0.06 1.1,0 2.17,-0.36 3.08,-1.03 2.29,-1.7 2.77,-4.95 1.07,-7.25 z m -1.67,6.45 c -0.9,0.67 -2,0.94 -3.11,0.78 -1.1,-0.16 -2.08,-0.75 -2.74,-1.64 -1.38,-1.86 -0.99,-4.48 0.86,-5.86 0.75,-0.56 1.62,-0.82 2.49,-0.82 1.28,0 2.55,0.58 3.37,1.69 1.37,1.85 0.98,4.48 -0.87,5.85 z"
   id="path39" />
			<path
   style="fill:#84cc16;fill-opacity:1"
   d="m 138.42,260.6 c -0.82,-1.11 -2.03,-1.84 -3.4,-2.04 -1.37,-0.2 -2.74,0.14 -3.85,0.97 -1.11,0.82 -1.84,2.03 -2.04,3.4 -0.18,1.2 0.09,2.39 0.7,3.42 L 0,359.64 v 1.22 l 130.41,-93.7 c 1.01,1.12 2.43,1.72 3.86,1.72 1.07,0 2.15,-0.34 3.08,-1.02 1.11,-0.83 1.84,-2.04 2.04,-3.41 0.2,-1.37 -0.14,-2.74 -0.97,-3.85 z m -0.02,3.7 c -0.16,1.11 -0.75,2.09 -1.65,2.75 -1.85,1.38 -4.47,0.99 -5.85,-0.86 -0.67,-0.9 -0.94,-2 -0.78,-3.11 0.16,-1.11 0.75,-2.08 1.65,-2.75 0.73,-0.54 1.59,-0.82 2.48,-0.82 0.21,0 0.42,0.01 0.62,0.04 1.11,0.16 2.08,0.75 2.75,1.65 0.67,0.89 0.94,2 0.78,3.1 z"
   id="path41" />
			<path
   style="fill:#84cc16;fill-opacity:1"
   d="m 129.65,331.31 c -1.7,-2.3 -4.96,-2.78 -7.25,-1.07 -2.16,1.6 -2.69,4.56 -1.34,6.81 L 32.85,400 h 1.73 l 87.06,-62.13 c 1.01,1.12 2.42,1.71 3.85,1.71 1.08,0 2.16,-0.33 3.09,-1.02 2.29,-1.7 2.77,-4.95 1.07,-7.25 z m -1.67,6.45 c -1.85,1.38 -4.48,0.99 -5.85,-0.86 -1.38,-1.86 -0.99,-4.48 0.86,-5.86 0.75,-0.56 1.62,-0.82 2.49,-0.82 1.28,0 2.55,0.58 3.37,1.69 1.37,1.85 0.98,4.48 -0.87,5.85 z"
   id="path43" />
			<path
   style="fill:#84cc16;fill-opacity:1"
   d="m 163.86,377.39 c -1.7,-2.3 -4.96,-2.78 -7.25,-1.07 -1.11,0.82 -1.84,2.03 -2.04,3.4 -0.18,1.2 0.09,2.39 0.7,3.41 L 131.63,400 h 1.74 l 22.5,-16.06 c 0.8,0.89 1.86,1.49 3.07,1.67 0.26,0.04 0.51,0.06 0.77,0.06 1.1,0 2.17,-0.35 3.08,-1.03 1.11,-0.82 1.83,-2.03 2.04,-3.4 0.2,-1.37 -0.14,-2.74 -0.97,-3.85 z m -0.02,3.7 c -0.17,1.11 -0.75,2.09 -1.65,2.75 -0.9,0.67 -2,0.95 -3.1,0.78 -1.11,-0.16 -2.09,-0.75 -2.75,-1.64 -0.67,-0.9 -0.95,-2 -0.78,-3.11 0.16,-1.11 0.75,-2.08 1.64,-2.75 0.75,-0.55 1.63,-0.82 2.49,-0.82 1.28,0 2.55,0.58 3.37,1.69 0.66,0.89 0.94,2 0.78,3.1 z"
   id="path45" />
			<path
   style="fill:#84cc16;fill-opacity:1"
   d="m 186.66,313.78 c -0.83,-1.11 -2.04,-1.83 -3.41,-2.03 -1.36,-0.21 -2.73,0.13 -3.84,0.96 -2.16,1.6 -2.69,4.56 -1.34,6.82 L 66.16,400 h 1.72 l 110.79,-79.67 c 0.8,0.9 1.86,1.5 3.07,1.67 0.26,0.04 0.51,0.06 0.77,0.06 1.1,0 2.17,-0.35 3.08,-1.02 1.11,-0.83 1.83,-2.04 2.04,-3.41 0.2,-1.37 -0.14,-2.73 -0.97,-3.85 z m -0.02,3.71 c -0.17,1.1 -0.75,2.08 -1.65,2.74 -0.9,0.67 -2,0.95 -3.11,0.78 -1.1,-0.16 -2.08,-0.74 -2.74,-1.64 -1.38,-1.85 -0.99,-4.48 0.86,-5.86 0.73,-0.54 1.6,-0.82 2.49,-0.82 0.2,0 0.41,0.01 0.62,0.04 1.1,0.17 2.08,0.75 2.75,1.65 0.66,0.9 0.94,2 0.78,3.11 z"
   id="path47" />
			<path
   style="fill:#84cc16;fill-opacity:1"
   d="m 70.33,251.41 c -0.83,-1.11 -2.03,-1.84 -3.4,-2.04 -1.37,-0.2 -2.74,0.14 -3.85,0.97 -1.12,0.82 -1.84,2.03 -2.04,3.4 -0.18,1.2 0.08,2.39 0.7,3.41 L 0,301.21 v 1.24 l 62.32,-44.48 c 1.01,1.12 2.42,1.71 3.85,1.71 1.08,0 2.16,-0.33 3.09,-1.02 1.11,-0.82 1.83,-2.03 2.04,-3.4 0.2,-1.37 -0.14,-2.74 -0.97,-3.85 z m -0.02,3.7 c -0.17,1.11 -0.75,2.08 -1.65,2.75 -1.85,1.38 -4.48,0.99 -5.85,-0.86 -0.67,-0.9 -0.95,-2.01 -0.78,-3.11 0.16,-1.11 0.75,-2.08 1.64,-2.75 0.73,-0.54 1.6,-0.83 2.49,-0.83 0.21,0 0.41,0.02 0.62,0.05 1.1,0.16 2.08,0.75 2.75,1.65 0.66,0.89 0.94,2 0.78,3.1 z"
   id="path49" />
			<path
   style="fill:#84cc16;fill-opacity:1"
   d="m 32.91,178.59 c -0.82,-1.11 -2.03,-1.83 -3.4,-2.03 -1.37,-0.21 -2.74,0.14 -3.85,0.96 -1.11,0.83 -1.84,2.04 -2.04,3.41 -0.18,1.2 0.09,2.38 0.7,3.41 L 0,201.7 v 1.22 l 24.9,-17.77 c 1.01,1.12 2.42,1.72 3.86,1.72 1.07,0 2.15,-0.33 3.08,-1.02 1.11,-0.83 1.84,-2.04 2.04,-3.41 0.2,-1.37 -0.14,-2.73 -0.97,-3.85 z m -0.02,3.71 c -0.16,1.1 -0.75,2.08 -1.65,2.75 -1.85,1.37 -4.48,0.98 -5.85,-0.87 -0.67,-0.9 -0.94,-2 -0.78,-3.11 0.16,-1.1 0.75,-2.08 1.64,-2.74 0.73,-0.55 1.6,-0.83 2.49,-0.83 0.21,0 0.41,0.01 0.62,0.05 1.11,0.16 2.08,0.74 2.75,1.64 0.67,0.9 0.94,2 0.78,3.11 z"
   id="path51" />
			<path
   style="fill:#84cc16;fill-opacity:1"
   d="m 103.6,201.91 c -0.82,-1.11 -2.03,-1.84 -3.4,-2.04 -1.37,-0.2 -2.74,0.14 -3.85,0.97 -1.11,0.82 -1.84,2.03 -2.04,3.4 -0.18,1.2 0.09,2.39 0.7,3.41 L 0,275.97 v 1.24 l 95.59,-68.74 c 1.01,1.12 2.42,1.71 3.86,1.71 1.07,0 2.15,-0.33 3.08,-1.02 1.11,-0.82 1.84,-2.03 2.04,-3.4 0.2,-1.37 -0.14,-2.74 -0.97,-3.85 z m -0.02,3.7 c -0.16,1.11 -0.75,2.08 -1.65,2.75 -1.85,1.38 -4.48,0.99 -5.85,-0.86 -0.67,-0.9 -0.95,-2.01 -0.78,-3.11 0.16,-1.11 0.75,-2.08 1.64,-2.75 0.73,-0.54 1.6,-0.83 2.49,-0.83 0.21,0 0.41,0.02 0.62,0.05 1.11,0.16 2.08,0.75 2.75,1.64 0.67,0.9 0.94,2.01 0.78,3.11 z"
   id="path53" />
			<path
   style="fill:#84cc16;fill-opacity:1"
   d="m 109.09,175.9 c -1.71,-2.3 -4.96,-2.78 -7.26,-1.08 -2.15,1.6 -2.68,4.56 -1.33,6.82 L 0,254.06 v 1.23 l 101.08,-72.83 c 1.01,1.12 2.42,1.71 3.85,1.71 1.08,0 2.16,-0.33 3.09,-1.02 2.29,-1.7 2.77,-4.96 1.07,-7.25 z m -1.67,6.45 c -1.85,1.37 -4.48,0.98 -5.85,-0.87 -1.38,-1.85 -0.99,-4.48 0.86,-5.85 1.85,-1.38 4.48,-0.99 5.86,0.86 1.37,1.85 0.98,4.48 -0.87,5.86 z"
   id="path55" />
			<path
   style="fill:#84cc16;fill-opacity:1"
   d="m 52.98,143.1 c -1.71,-2.3 -4.96,-2.78 -7.26,-1.08 -2.15,1.6 -2.68,4.56 -1.33,6.82 L 0,180.83 v 1.23 l 44.97,-32.4 c 1.01,1.12 2.42,1.71 3.85,1.71 1.08,0 2.16,-0.33 3.09,-1.02 2.29,-1.7 2.77,-4.96 1.07,-7.25 z m -1.67,6.45 c -1.85,1.37 -4.48,0.98 -5.85,-0.87 -1.38,-1.85 -0.99,-4.48 0.86,-5.85 1.85,-1.38 4.48,-0.99 5.86,0.86 1.37,1.85 0.98,4.48 -0.87,5.86 z"
   id="path57" />
			<path
   style="fill:#84cc16;fill-opacity:1"
   d="m 160.07,289.76 c -1.7,-2.3 -4.96,-2.78 -7.25,-1.07 -1.11,0.82 -1.84,2.03 -2.04,3.4 v 0.01 L 139.11,291.53 0,391.38 v 1.24 l 139.41,-100.07 11.32,0.55 c 0.05,1.02 0.39,2 1.02,2.84 1.01,1.37 2.58,2.09 4.16,2.09 1.08,0 2.16,-0.33 3.09,-1.02 2.29,-1.7 2.78,-4.95 1.07,-7.25 z m -1.67,6.45 c -1.85,1.38 -4.48,0.99 -5.85,-0.86 -0.67,-0.9 -0.95,-2.01 -0.78,-3.11 0.16,-1.11 0.75,-2.08 1.64,-2.75 0.75,-0.56 1.63,-0.82 2.49,-0.82 1.28,0 2.55,0.58 3.37,1.69 1.37,1.85 0.99,4.48 -0.87,5.85 z"
   id="path59" />
			<path
   style="fill:#84cc16;fill-opacity:1"
   d="m 199.46,283.86 c -0.83,-1.11 -2.04,-1.84 -3.41,-2.04 -1.37,-0.2 -2.74,0.14 -3.85,0.97 -2.16,1.6 -2.69,4.56 -1.33,6.82 l -39.91,29.63 -24.37,-3.6 -0.2,-0.03 L 8.44,400 h 1.72 l 116.48,-83.34 24.58,3.63 40.23,-29.86 c 1.01,1.11 2.42,1.7 3.85,1.7 1.07,0 2.16,-0.33 3.08,-1.01 2.3,-1.71 2.78,-4.96 1.08,-7.26 z m -1.67,6.45 c -1.85,1.38 -4.48,0.99 -5.86,-0.86 -1.37,-1.86 -0.99,-4.48 0.87,-5.86 0.73,-0.54 1.59,-0.82 2.48,-0.82 0.21,0 0.42,0.01 0.62,0.04 1.11,0.16 2.09,0.75 2.75,1.65 1.38,1.85 0.99,4.48 -0.86,5.85 z"
   id="path61" />
			<path
   style="fill:#84cc16;fill-opacity:1"
   d="m 229.48,324.3 c -0.83,-1.11 -2.04,-1.84 -3.41,-2.04 -1.37,-0.2 -2.73,0.14 -3.85,0.97 -2.15,1.6 -2.68,4.56 -1.33,6.82 l -39.91,29.63 -24.37,-3.6 -0.2,-0.03 L 94.98,400 h 1.72 l 59.96,-42.9 24.59,3.63 40.22,-29.87 c 1.01,1.12 2.42,1.71 3.85,1.71 1.08,0 2.16,-0.33 3.09,-1.02 2.29,-1.7 2.77,-4.96 1.07,-7.25 z m -1.67,6.45 c -1.85,1.38 -4.48,0.99 -5.86,-0.86 -1.37,-1.86 -0.98,-4.48 0.87,-5.86 0.73,-0.54 1.59,-0.83 2.49,-0.83 0.2,0 0.41,0.02 0.62,0.05 1.1,0.16 2.08,0.75 2.74,1.65 1.38,1.85 0.99,4.47 -0.86,5.85 z"
   id="path63" />
			<path
   style="fill:#84cc16;fill-opacity:1"
   d="m 123.74,240.83 c -1.7,-2.3 -4.96,-2.78 -7.25,-1.07 -1.11,0.82 -1.84,2.03 -2.04,3.4 -0.2,1.37 0.14,2.74 0.97,3.85 0.63,0.86 1.49,1.46 2.43,1.79 L 115.1,259.79 0,342.42 v 1.23 l 115.83,-83.15 0.15,-0.11 2.84,-11.35 c 0.25,0.04 0.51,0.06 0.77,0.06 1.07,0 2.16,-0.33 3.08,-1.02 2.3,-1.7 2.78,-4.96 1.07,-7.25 z m -1.66,6.45 c -1.86,1.38 -4.48,0.99 -5.86,-0.86 -0.67,-0.9 -0.94,-2.01 -0.78,-3.11 0.16,-1.11 0.75,-2.08 1.65,-2.75 0.74,-0.56 1.62,-0.82 2.49,-0.82 1.28,0 2.54,0.58 3.36,1.68 1.38,1.86 0.99,4.48 -0.86,5.86 z"
   id="path65" />
			<path
   style="fill:#84cc16;fill-opacity:1"
   d="m 66.11,173.59 c -1.71,-2.29 -4.96,-2.77 -7.26,-1.07 -1.11,0.83 -1.83,2.04 -2.04,3.41 -0.2,1.37 0.14,2.73 0.97,3.85 0.62,0.84 1.47,1.45 2.43,1.79 L 57.46,192.56 0,233.81 v 1.23 l 58.2,-41.78 0.14,-0.1 2.84,-11.35 c 0.26,0.04 0.52,0.06 0.77,0.06 1.11,0 2.18,-0.35 3.08,-1.02 2.3,-1.71 2.78,-4.96 1.08,-7.26 z m -1.67,6.46 c -0.9,0.66 -2,0.94 -3.11,0.78 -1.1,-0.17 -2.08,-0.75 -2.75,-1.65 -0.66,-0.9 -0.94,-2 -0.78,-3.11 0.17,-1.1 0.75,-2.08 1.65,-2.74 0.75,-0.56 1.62,-0.83 2.49,-0.83 1.28,0 2.54,0.59 3.36,1.69 1.38,1.85 0.99,4.48 -0.86,5.86 z"
   id="path67" />
			<path
   style="fill:#84cc16;fill-opacity:1"
   d="m 26.11,128.55 c -1.71,-2.29 -4.96,-2.77 -7.26,-1.07 -1.11,0.83 -1.83,2.04 -2.04,3.41 -0.2,1.37 0.14,2.73 0.97,3.85 0.62,0.84 1.47,1.45 2.43,1.79 L 17.46,147.52 0,160.05 v 1.24 l 18.2,-13.07 0.14,-0.1 2.84,-11.35 c 0.26,0.04 0.52,0.06 0.77,0.06 1.11,0 2.18,-0.35 3.08,-1.02 2.3,-1.71 2.78,-4.96 1.08,-7.26 z m -1.67,6.46 c -0.9,0.66 -2,0.94 -3.11,0.78 -1.1,-0.17 -2.08,-0.75 -2.75,-1.65 -0.66,-0.9 -0.94,-2 -0.78,-3.11 0.17,-1.1 0.75,-2.08 1.65,-2.74 0.75,-0.56 1.62,-0.83 2.49,-0.83 1.28,0 2.54,0.59 3.36,1.69 1.38,1.85 0.99,4.48 -0.86,5.86 z"
   id="path69" />
			<path
   style="fill:#84cc16;fill-opacity:1"
   d="m 219.98,382.63 c -1.71,-2.3 -4.96,-2.78 -7.26,-1.08 -2.15,1.6 -2.68,4.56 -1.33,6.82 L 195.25,400 h 1.72 l 15,-10.81 c 1.01,1.12 2.42,1.71 3.85,1.71 1.08,0 2.16,-0.33 3.09,-1.02 2.29,-1.7 2.77,-4.96 1.07,-7.25 z m -1.67,6.45 c -1.85,1.37 -4.48,0.98 -5.85,-0.87 -1.38,-1.85 -0.99,-4.48 0.86,-5.85 1.85,-1.38 4.48,-0.99 5.86,0.86 1.37,1.85 0.98,4.48 -0.87,5.86 z"
   id="path71" />
			<path
   style="fill:#84cc16;fill-opacity:1"
   d="m 254.09,388.1 c -1.71,-2.3 -4.96,-2.78 -7.26,-1.08 -2.15,1.6 -2.68,4.56 -1.33,6.82 l -8.55,6.16 h 1.72 l 7.41,-5.34 c 1.01,1.12 2.42,1.71 3.85,1.71 1.08,0 2.16,-0.33 3.09,-1.02 2.29,-1.7 2.77,-4.96 1.07,-7.25 z m -1.67,6.45 c -1.85,1.37 -4.48,0.98 -5.85,-0.87 -1.38,-1.85 -0.99,-4.48 0.86,-5.85 1.85,-1.38 4.48,-0.99 5.86,0.86 1.37,1.85 0.98,4.48 -0.87,5.86 z"
   id="path73" />
			<path
   style="fill:#84cc16;fill-opacity:1"
   d="m 193.11,368.09 c -1.71,-2.29 -4.96,-2.77 -7.26,-1.07 -1.11,0.83 -1.83,2.04 -2.04,3.41 -0.2,1.37 0.14,2.73 0.97,3.85 0.62,0.84 1.47,1.45 2.43,1.79 l -2.75,10.99 -18.03,12.94 h 1.72 l 17.05,-12.24 0.14,-0.1 2.84,-11.35 c 0.26,0.04 0.52,0.06 0.77,0.06 1.11,0 2.18,-0.35 3.08,-1.02 2.3,-1.71 2.78,-4.96 1.08,-7.26 z m -1.67,6.46 c -0.9,0.66 -2,0.94 -3.11,0.78 -1.1,-0.17 -2.08,-0.75 -2.75,-1.65 -0.66,-0.9 -0.94,-2 -0.78,-3.11 0.17,-1.1 0.75,-2.08 1.65,-2.74 0.75,-0.56 1.62,-0.83 2.49,-0.83 1.28,0 2.54,0.59 3.36,1.69 1.38,1.85 0.99,4.48 -0.86,5.86 z"
   id="path75" />
			<path
   style="fill:#84cc16;fill-opacity:1"
   d="m 138.01,201.1 c -0.82,-1.11 -2.03,-1.83 -3.4,-2.04 -1.36,-0.2 -2.74,0.14 -3.85,0.97 -1.11,0.83 -1.84,2.03 -2.04,3.4 -0.18,1.21 0.09,2.4 0.71,3.42 L 90.13,236.03 85.85,261.69 0,323.11 v 1.23 l 86.6,-61.96 0.16,-0.12 4.29,-25.67 38.96,-28.92 c 1.01,1.11 2.42,1.71 3.85,1.71 1.07,0 2.15,-0.34 3.08,-1.02 1.11,-0.83 1.84,-2.04 2.04,-3.41 0.2,-1.37 -0.14,-2.74 -0.97,-3.85 z m -0.02,3.71 c -0.16,1.1 -0.75,2.08 -1.64,2.74 -1.86,1.38 -4.48,0.99 -5.86,-0.86 -0.67,-0.9 -0.94,-2 -0.78,-3.11 0.16,-1.1 0.75,-2.08 1.65,-2.75 0.73,-0.54 1.59,-0.82 2.48,-0.82 0.21,0 0.42,0.01 0.62,0.04 1.11,0.17 2.08,0.75 2.75,1.65 0.67,0.9 0.94,2 0.78,3.11 z"
   id="path77" />
		</g>
		<g
   id="g151"
   style="fill:#84cc16;fill-opacity:1">
			<path
   style="fill:#84cc16;fill-opacity:1"
   d="m 428.5,147.9 c 1.71,2.3 4.96,2.77 7.25,1.07 2.16,-1.6 2.69,-4.56 1.34,-6.81 L 600,24.72 V 23.48 L 436.49,141.35 c -0.8,-0.89 -1.86,-1.49 -3.07,-1.67 -0.25,-0.04 -0.51,-0.06 -0.77,-0.06 -1.1,0 -2.17,0.36 -3.08,1.03 -2.29,1.7 -2.77,4.95 -1.07,7.25 z m 1.67,-6.45 c 0.9,-0.67 2,-0.94 3.11,-0.78 1.1,0.16 2.08,0.75 2.74,1.64 1.38,1.86 0.99,4.48 -0.86,5.86 -0.75,0.56 -1.62,0.82 -2.49,0.82 -1.28,0 -2.55,-0.58 -3.37,-1.69 -1.37,-1.85 -0.98,-4.48 0.87,-5.85 z"
   id="path81" />
			<path
   style="fill:#84cc16;fill-opacity:1"
   d="m 461.58,139.4 c 0.82,1.11 2.03,1.84 3.4,2.04 1.37,0.2 2.74,-0.14 3.85,-0.97 1.11,-0.82 1.84,-2.03 2.04,-3.4 0.18,-1.2 -0.09,-2.39 -0.7,-3.42 L 600,40.36 v -1.22 l -130.41,93.7 c -1.01,-1.12 -2.43,-1.72 -3.86,-1.72 -1.07,0 -2.15,0.34 -3.08,1.02 -1.11,0.83 -1.84,2.04 -2.04,3.41 -0.2,1.37 0.14,2.74 0.97,3.85 z m 0.02,-3.7 c 0.16,-1.11 0.75,-2.09 1.65,-2.75 1.85,-1.38 4.47,-0.99 5.85,0.86 0.67,0.9 0.94,2 0.78,3.11 -0.16,1.11 -0.75,2.08 -1.65,2.75 -0.73,0.54 -1.59,0.82 -2.48,0.82 -0.21,0 -0.42,-0.01 -0.62,-0.04 -1.11,-0.16 -2.08,-0.75 -2.75,-1.65 -0.67,-0.89 -0.94,-2 -0.78,-3.1 z"
   id="path83" />
			<path
   style="fill:#84cc16;fill-opacity:1"
   d="m 470.35,68.69 c 1.7,2.3 4.96,2.78 7.25,1.07 2.16,-1.6 2.69,-4.56 1.34,-6.81 L 567.15,0 h -1.73 l -87.06,62.13 c -1.01,-1.12 -2.42,-1.71 -3.85,-1.71 -1.08,0 -2.16,0.33 -3.09,1.02 -2.29,1.7 -2.77,4.95 -1.07,7.25 z m 1.67,-6.45 c 1.85,-1.38 4.48,-0.99 5.85,0.86 1.38,1.86 0.99,4.48 -0.86,5.86 -0.75,0.56 -1.62,0.82 -2.49,0.82 -1.28,0 -2.55,-0.58 -3.37,-1.69 -1.37,-1.85 -0.98,-4.48 0.87,-5.85 z"
   id="path85" />
			<path
   style="fill:#84cc16;fill-opacity:1"
   d="m 436.14,22.61 c 1.7,2.3 4.96,2.78 7.25,1.07 1.11,-0.82 1.84,-2.03 2.04,-3.4 0.18,-1.2 -0.09,-2.39 -0.7,-3.41 L 468.37,0 h -1.74 l -22.5,16.06 c -0.8,-0.89 -1.86,-1.49 -3.07,-1.67 -0.26,-0.04 -0.51,-0.06 -0.77,-0.06 -1.1,0 -2.17,0.35 -3.08,1.03 -1.11,0.82 -1.83,2.03 -2.04,3.4 -0.2,1.37 0.14,2.74 0.97,3.85 z m 0.02,-3.7 c 0.17,-1.11 0.75,-2.09 1.65,-2.75 0.9,-0.67 2,-0.95 3.1,-0.78 1.11,0.16 2.09,0.75 2.75,1.64 0.67,0.9 0.95,2 0.78,3.11 -0.16,1.11 -0.75,2.08 -1.64,2.75 -0.75,0.55 -1.63,0.82 -2.49,0.82 -1.28,0 -2.55,-0.58 -3.37,-1.69 -0.66,-0.89 -0.94,-2 -0.78,-3.1 z"
   id="path87" />
			<path
   style="fill:#84cc16;fill-opacity:1"
   d="m 413.34,86.22 c 0.83,1.11 2.04,1.83 3.41,2.03 1.36,0.21 2.73,-0.13 3.84,-0.96 2.16,-1.6 2.69,-4.56 1.34,-6.82 L 533.84,0 h -1.72 L 421.33,79.67 c -0.8,-0.9 -1.86,-1.5 -3.07,-1.67 -0.26,-0.04 -0.51,-0.06 -0.77,-0.06 -1.1,0 -2.17,0.35 -3.08,1.02 -1.11,0.83 -1.83,2.04 -2.04,3.41 -0.2,1.37 0.14,2.73 0.97,3.85 z m 0.02,-3.71 c 0.17,-1.1 0.75,-2.08 1.65,-2.74 0.9,-0.67 2,-0.95 3.11,-0.78 1.1,0.16 2.08,0.74 2.74,1.64 1.38,1.85 0.99,4.48 -0.86,5.86 -0.73,0.54 -1.6,0.82 -2.49,0.82 -0.2,0 -0.41,-0.01 -0.62,-0.04 -1.1,-0.17 -2.08,-0.75 -2.75,-1.65 -0.66,-0.9 -0.94,-2 -0.78,-3.11 z"
   id="path89" />
			<path
   style="fill:#84cc16;fill-opacity:1"
   d="m 529.67,148.59 c 0.83,1.11 2.03,1.84 3.4,2.04 1.37,0.2 2.74,-0.14 3.85,-0.97 1.12,-0.82 1.84,-2.03 2.04,-3.4 0.18,-1.2 -0.08,-2.39 -0.7,-3.41 L 600,98.79 v -1.24 l -62.32,44.48 c -1.01,-1.12 -2.42,-1.71 -3.85,-1.71 -1.08,0 -2.16,0.33 -3.09,1.02 -1.11,0.82 -1.83,2.03 -2.04,3.4 -0.2,1.37 0.14,2.74 0.97,3.85 z m 0.02,-3.7 c 0.17,-1.11 0.75,-2.08 1.65,-2.75 1.85,-1.38 4.48,-0.99 5.85,0.86 0.67,0.9 0.95,2.01 0.78,3.11 -0.16,1.11 -0.75,2.08 -1.64,2.75 -0.73,0.54 -1.6,0.83 -2.49,0.83 -0.21,0 -0.41,-0.02 -0.62,-0.05 -1.1,-0.16 -2.08,-0.75 -2.75,-1.65 -0.66,-0.89 -0.94,-2 -0.78,-3.1 z"
   id="path91" />
			<path
   style="fill:#84cc16;fill-opacity:1"
   d="m 567.09,221.41 c 0.82,1.11 2.03,1.83 3.4,2.03 1.37,0.21 2.74,-0.14 3.85,-0.96 1.11,-0.83 1.84,-2.04 2.04,-3.41 0.18,-1.2 -0.09,-2.38 -0.7,-3.41 L 600,198.3 v -1.22 l -24.9,17.77 c -1.01,-1.12 -2.42,-1.72 -3.86,-1.72 -1.07,0 -2.15,0.33 -3.08,1.02 -1.11,0.83 -1.84,2.04 -2.04,3.41 -0.2,1.37 0.14,2.73 0.97,3.85 z m 0.02,-3.71 c 0.16,-1.1 0.75,-2.08 1.65,-2.75 1.85,-1.37 4.48,-0.98 5.85,0.87 0.67,0.9 0.94,2 0.78,3.11 -0.16,1.1 -0.75,2.08 -1.64,2.74 -0.73,0.55 -1.6,0.83 -2.49,0.83 -0.21,0 -0.41,-0.01 -0.62,-0.05 -1.11,-0.16 -2.08,-0.74 -2.75,-1.64 -0.67,-0.9 -0.94,-2 -0.78,-3.11 z"
   id="path93" />
			<path
   style="fill:#84cc16;fill-opacity:1"
   d="m 496.4,198.09 c 0.82,1.11 2.03,1.84 3.4,2.04 1.37,0.2 2.74,-0.14 3.85,-0.97 1.11,-0.82 1.84,-2.03 2.04,-3.4 0.18,-1.2 -0.09,-2.39 -0.7,-3.41 L 600,124.03 v -1.24 l -95.59,68.74 c -1.01,-1.12 -2.42,-1.71 -3.86,-1.71 -1.07,0 -2.15,0.33 -3.08,1.02 -1.11,0.82 -1.84,2.03 -2.04,3.4 -0.2,1.37 0.14,2.74 0.97,3.85 z m 0.02,-3.7 c 0.16,-1.11 0.75,-2.08 1.65,-2.75 1.85,-1.38 4.48,-0.99 5.85,0.86 0.67,0.9 0.95,2.01 0.78,3.11 -0.16,1.11 -0.75,2.08 -1.64,2.75 -0.73,0.54 -1.6,0.83 -2.49,0.83 -0.21,0 -0.41,-0.02 -0.62,-0.05 -1.11,-0.16 -2.08,-0.75 -2.75,-1.64 -0.67,-0.9 -0.94,-2.01 -0.78,-3.11 z"
   id="path95" />
			<path
   style="fill:#84cc16;fill-opacity:1"
   d="m 490.91,224.1 c 1.71,2.3 4.96,2.78 7.26,1.08 2.15,-1.6 2.68,-4.56 1.33,-6.82 L 600,145.94 v -1.23 l -101.08,72.83 c -1.01,-1.12 -2.42,-1.71 -3.85,-1.71 -1.08,0 -2.16,0.33 -3.09,1.02 -2.29,1.7 -2.77,4.96 -1.07,7.25 z m 1.67,-6.45 c 1.85,-1.37 4.48,-0.98 5.85,0.87 1.38,1.85 0.99,4.48 -0.86,5.85 -1.85,1.38 -4.48,0.99 -5.86,-0.86 -1.37,-1.85 -0.98,-4.48 0.87,-5.86 z"
   id="path97" />
			<path
   style="fill:#84cc16;fill-opacity:1"
   d="m 439.93,110.24 c 1.7,2.3 4.96,2.78 7.25,1.07 1.11,-0.82 1.84,-2.03 2.04,-3.4 v -0.01 l 11.67,0.57 L 600,8.62 V 7.38 L 460.59,107.45 449.27,106.9 c -0.05,-1.02 -0.39,-2 -1.02,-2.84 -1.01,-1.37 -2.58,-2.09 -4.16,-2.09 -1.08,0 -2.16,0.33 -3.09,1.02 -2.29,1.7 -2.78,4.95 -1.07,7.25 z m 1.67,-6.45 c 1.85,-1.38 4.48,-0.99 5.85,0.86 0.67,0.9 0.95,2.01 0.78,3.11 -0.16,1.11 -0.75,2.08 -1.64,2.75 -0.75,0.56 -1.63,0.82 -2.49,0.82 -1.28,0 -2.55,-0.58 -3.37,-1.69 -1.37,-1.85 -0.99,-4.48 0.87,-5.85 z"
   id="path99" />
			<path
   style="fill:#84cc16;fill-opacity:1"
   d="m 400.54,116.14 c 0.83,1.11 2.04,1.84 3.41,2.04 1.37,0.2 2.74,-0.14 3.85,-0.97 2.16,-1.6 2.69,-4.56 1.33,-6.82 l 39.91,-29.63 24.37,3.6 0.2,0.03 L 591.56,0 h -1.72 l -116.48,83.34 -24.58,-3.63 -40.23,29.86 c -1.01,-1.11 -2.42,-1.7 -3.85,-1.7 -1.07,0 -2.16,0.33 -3.08,1.01 -2.3,1.71 -2.78,4.96 -1.08,7.26 z m 1.67,-6.45 c 1.85,-1.38 4.48,-0.99 5.86,0.86 1.37,1.86 0.99,4.48 -0.87,5.86 -0.73,0.54 -1.59,0.82 -2.48,0.82 -0.21,0 -0.42,-0.01 -0.62,-0.04 -1.11,-0.16 -2.09,-0.75 -2.75,-1.65 -1.38,-1.85 -0.99,-4.48 0.86,-5.85 z"
   id="path101" />
			<path
   style="fill:#84cc16;fill-opacity:1"
   d="m 370.52,75.7 c 0.83,1.11 2.04,1.84 3.41,2.04 1.37,0.2 2.73,-0.14 3.85,-0.97 2.15,-1.6 2.68,-4.56 1.33,-6.82 l 39.91,-29.63 24.37,3.6 0.2,0.03 L 505.02,0 h -1.72 l -59.96,42.9 -24.59,-3.63 -40.22,29.87 c -1.01,-1.12 -2.42,-1.71 -3.85,-1.71 -1.08,0 -2.16,0.33 -3.09,1.02 -2.29,1.7 -2.77,4.96 -1.07,7.25 z m 1.67,-6.45 c 1.85,-1.38 4.48,-0.99 5.86,0.86 1.37,1.86 0.98,4.48 -0.87,5.86 -0.73,0.54 -1.59,0.83 -2.49,0.83 -0.2,0 -0.41,-0.02 -0.62,-0.05 -1.1,-0.16 -2.08,-0.75 -2.74,-1.65 -1.38,-1.85 -0.99,-4.47 0.86,-5.85 z"
   id="path103" />
			<path
   style="fill:#84cc16;fill-opacity:1"
   d="m 476.26,159.17 c 1.7,2.3 4.96,2.78 7.25,1.07 1.11,-0.82 1.84,-2.03 2.04,-3.4 0.2,-1.37 -0.14,-2.74 -0.97,-3.85 -0.63,-0.86 -1.49,-1.46 -2.43,-1.79 L 484.9,140.21 600,57.58 v -1.23 l -115.83,83.15 -0.15,0.11 -2.84,11.35 c -0.25,-0.04 -0.51,-0.06 -0.77,-0.06 -1.07,0 -2.16,0.33 -3.08,1.02 -2.3,1.7 -2.78,4.96 -1.07,7.25 z m 1.66,-6.45 c 1.86,-1.38 4.48,-0.99 5.86,0.86 0.67,0.9 0.94,2.01 0.78,3.11 -0.16,1.11 -0.75,2.08 -1.65,2.75 -0.74,0.56 -1.62,0.82 -2.49,0.82 -1.28,0 -2.54,-0.58 -3.36,-1.68 -1.38,-1.86 -0.99,-4.48 0.86,-5.86 z"
   id="path105" />
			<path
   style="fill:#84cc16;fill-opacity:1"
   d="m 533.89,226.41 c 1.71,2.29 4.96,2.77 7.26,1.07 1.11,-0.83 1.83,-2.04 2.04,-3.41 0.2,-1.37 -0.14,-2.73 -0.97,-3.85 -0.62,-0.84 -1.47,-1.45 -2.43,-1.79 l 2.75,-10.99 57.46,-41.25 v -1.23 l -58.2,41.78 -0.14,0.1 -2.84,11.35 c -0.26,-0.04 -0.52,-0.06 -0.77,-0.06 -1.11,0 -2.18,0.35 -3.08,1.02 -2.3,1.71 -2.78,4.96 -1.08,7.26 z m 1.67,-6.46 c 0.9,-0.66 2,-0.94 3.11,-0.78 1.1,0.17 2.08,0.75 2.75,1.65 0.66,0.9 0.94,2 0.78,3.11 -0.17,1.1 -0.75,2.08 -1.65,2.74 -0.75,0.56 -1.62,0.83 -2.49,0.83 -1.28,0 -2.54,-0.59 -3.36,-1.69 -1.38,-1.85 -0.99,-4.48 0.86,-5.86 z"
   id="path107" />
			<path
   style="fill:#84cc16;fill-opacity:1"
   d="m 461.99,198.9 c 0.82,1.11 2.03,1.83 3.4,2.04 1.36,0.2 2.74,-0.14 3.85,-0.97 1.11,-0.83 1.84,-2.03 2.04,-3.4 0.18,-1.21 -0.09,-2.4 -0.71,-3.42 l 39.3,-29.18 4.28,-25.66 L 600,76.89 v -1.23 l -86.6,61.96 -0.16,0.12 -4.29,25.67 -38.96,28.92 c -1.01,-1.11 -2.42,-1.71 -3.85,-1.71 -1.07,0 -2.15,0.34 -3.08,1.02 -1.11,0.83 -1.84,2.04 -2.04,3.41 -0.2,1.37 0.14,2.74 0.97,3.85 z m 0.02,-3.71 c 0.16,-1.1 0.75,-2.08 1.64,-2.74 1.86,-1.38 4.48,-0.99 5.86,0.86 0.67,0.9 0.94,2 0.78,3.11 -0.16,1.1 -0.75,2.08 -1.65,2.75 -0.73,0.54 -1.59,0.82 -2.48,0.82 -0.21,0 -0.42,-0.01 -0.62,-0.04 -1.11,-0.17 -2.08,-0.75 -2.75,-1.65 -0.67,-0.9 -0.94,-2 -0.78,-3.11 z"
   id="path109" />
			<path
   style="fill:#84cc16;fill-opacity:1"
   d="m 428.5,147.9 c 1.71,2.3 4.96,2.77 7.25,1.07 2.16,-1.6 2.69,-4.56 1.34,-6.81 L 600,24.72 V 23.48 L 436.49,141.35 c -0.8,-0.89 -1.86,-1.49 -3.07,-1.67 -0.25,-0.04 -0.51,-0.06 -0.77,-0.06 -1.1,0 -2.17,0.36 -3.08,1.03 -2.29,1.7 -2.77,4.95 -1.07,7.25 z m 1.67,-6.45 c 0.9,-0.67 2,-0.94 3.11,-0.78 1.1,0.16 2.08,0.75 2.74,1.64 1.38,1.86 0.99,4.48 -0.86,5.86 -0.75,0.56 -1.62,0.82 -2.49,0.82 -1.28,0 -2.55,-0.58 -3.37,-1.69 -1.37,-1.85 -0.98,-4.48 0.87,-5.85 z"
   id="path111" />
			<path
   style="fill:#84cc16;fill-opacity:1"
   d="m 461.58,139.4 c 0.82,1.11 2.03,1.84 3.4,2.04 1.37,0.2 2.74,-0.14 3.85,-0.97 1.11,-0.82 1.84,-2.03 2.04,-3.4 0.18,-1.2 -0.09,-2.39 -0.7,-3.42 L 600,40.36 v -1.22 l -130.41,93.7 c -1.01,-1.12 -2.43,-1.72 -3.86,-1.72 -1.07,0 -2.15,0.34 -3.08,1.02 -1.11,0.83 -1.84,2.04 -2.04,3.41 -0.2,1.37 0.14,2.74 0.97,3.85 z m 0.02,-3.7 c 0.16,-1.11 0.75,-2.09 1.65,-2.75 1.85,-1.38 4.47,-0.99 5.85,0.86 0.67,0.9 0.94,2 0.78,3.11 -0.16,1.11 -0.75,2.08 -1.65,2.75 -0.73,0.54 -1.59,0.82 -2.48,0.82 -0.21,0 -0.42,-0.01 -0.62,-0.04 -1.11,-0.16 -2.08,-0.75 -2.75,-1.65 -0.67,-0.89 -0.94,-2 -0.78,-3.1 z"
   id="path113" />
			<path
   style="fill:#84cc16;fill-opacity:1"
   d="m 470.35,68.69 c 1.7,2.3 4.96,2.78 7.25,1.07 2.16,-1.6 2.69,-4.56 1.34,-6.81 L 567.15,0 h -1.73 l -87.06,62.13 c -1.01,-1.12 -2.42,-1.71 -3.85,-1.71 -1.08,0 -2.16,0.33 -3.09,1.02 -2.29,1.7 -2.77,4.95 -1.07,7.25 z m 1.67,-6.45 c 1.85,-1.38 4.48,-0.99 5.85,0.86 1.38,1.86 0.99,4.48 -0.86,5.86 -0.75,0.56 -1.62,0.82 -2.49,0.82 -1.28,0 -2.55,-0.58 -3.37,-1.69 -1.37,-1.85 -0.98,-4.48 0.87,-5.85 z"
   id="path115" />
			<path
   style="fill:#84cc16;fill-opacity:1"
   d="m 436.14,22.61 c 1.7,2.3 4.96,2.78 7.25,1.07 1.11,-0.82 1.84,-2.03 2.04,-3.4 0.18,-1.2 -0.09,-2.39 -0.7,-3.41 L 468.37,0 h -1.74 l -22.5,16.06 c -0.8,-0.89 -1.86,-1.49 -3.07,-1.67 -0.26,-0.04 -0.51,-0.06 -0.77,-0.06 -1.1,0 -2.17,0.35 -3.08,1.03 -1.11,0.82 -1.83,2.03 -2.04,3.4 -0.2,1.37 0.14,2.74 0.97,3.85 z m 0.02,-3.7 c 0.17,-1.11 0.75,-2.09 1.65,-2.75 0.9,-0.67 2,-0.95 3.1,-0.78 1.11,0.16 2.09,0.75 2.75,1.64 0.67,0.9 0.95,2 0.78,3.11 -0.16,1.11 -0.75,2.08 -1.64,2.75 -0.75,0.55 -1.63,0.82 -2.49,0.82 -1.28,0 -2.55,-0.58 -3.37,-1.69 -0.66,-0.89 -0.94,-2 -0.78,-3.1 z"
   id="path117" />
			<path
   style="fill:#84cc16;fill-opacity:1"
   d="m 413.34,86.22 c 0.83,1.11 2.04,1.83 3.41,2.03 1.36,0.21 2.73,-0.13 3.84,-0.96 2.16,-1.6 2.69,-4.56 1.34,-6.82 L 533.84,0 h -1.72 L 421.33,79.67 c -0.8,-0.9 -1.86,-1.5 -3.07,-1.67 -0.26,-0.04 -0.51,-0.06 -0.77,-0.06 -1.1,0 -2.17,0.35 -3.08,1.02 -1.11,0.83 -1.83,2.04 -2.04,3.41 -0.2,1.37 0.14,2.73 0.97,3.85 z m 0.02,-3.71 c 0.17,-1.1 0.75,-2.08 1.65,-2.74 0.9,-0.67 2,-0.95 3.11,-0.78 1.1,0.16 2.08,0.74 2.74,1.64 1.38,1.85 0.99,4.48 -0.86,5.86 -0.73,0.54 -1.6,0.82 -2.49,0.82 -0.2,0 -0.41,-0.01 -0.62,-0.04 -1.1,-0.17 -2.08,-0.75 -2.75,-1.65 -0.66,-0.9 -0.94,-2 -0.78,-3.11 z"
   id="path119" />
			<path
   style="fill:#84cc16;fill-opacity:1"
   d="m 529.67,148.59 c 0.83,1.11 2.03,1.84 3.4,2.04 1.37,0.2 2.74,-0.14 3.85,-0.97 1.12,-0.82 1.84,-2.03 2.04,-3.4 0.18,-1.2 -0.08,-2.39 -0.7,-3.41 L 600,98.79 v -1.24 l -62.32,44.48 c -1.01,-1.12 -2.42,-1.71 -3.85,-1.71 -1.08,0 -2.16,0.33 -3.09,1.02 -1.11,0.82 -1.83,2.03 -2.04,3.4 -0.2,1.37 0.14,2.74 0.97,3.85 z m 0.02,-3.7 c 0.17,-1.11 0.75,-2.08 1.65,-2.75 1.85,-1.38 4.48,-0.99 5.85,0.86 0.67,0.9 0.95,2.01 0.78,3.11 -0.16,1.11 -0.75,2.08 -1.64,2.75 -0.73,0.54 -1.6,0.83 -2.49,0.83 -0.21,0 -0.41,-0.02 -0.62,-0.05 -1.1,-0.16 -2.08,-0.75 -2.75,-1.65 -0.66,-0.89 -0.94,-2 -0.78,-3.1 z"
   id="path121" />
			<path
   style="fill:#84cc16;fill-opacity:1"
   d="m 567.09,221.41 c 0.82,1.11 2.03,1.83 3.4,2.03 1.37,0.21 2.74,-0.14 3.85,-0.96 1.11,-0.83 1.84,-2.04 2.04,-3.41 0.18,-1.2 -0.09,-2.38 -0.7,-3.41 L 600,198.3 v -1.22 l -24.9,17.77 c -1.01,-1.12 -2.42,-1.72 -3.86,-1.72 -1.07,0 -2.15,0.33 -3.08,1.02 -1.11,0.83 -1.84,2.04 -2.04,3.41 -0.2,1.37 0.14,2.73 0.97,3.85 z m 0.02,-3.71 c 0.16,-1.1 0.75,-2.08 1.65,-2.75 1.85,-1.37 4.48,-0.98 5.85,0.87 0.67,0.9 0.94,2 0.78,3.11 -0.16,1.1 -0.75,2.08 -1.64,2.74 -0.73,0.55 -1.6,0.83 -2.49,0.83 -0.21,0 -0.41,-0.01 -0.62,-0.05 -1.11,-0.16 -2.08,-0.74 -2.75,-1.64 -0.67,-0.9 -0.94,-2 -0.78,-3.11 z"
   id="path123" />
			<path
   style="fill:#84cc16;fill-opacity:1"
   d="m 496.4,198.09 c 0.82,1.11 2.03,1.84 3.4,2.04 1.37,0.2 2.74,-0.14 3.85,-0.97 1.11,-0.82 1.84,-2.03 2.04,-3.4 0.18,-1.2 -0.09,-2.39 -0.7,-3.41 L 600,124.03 v -1.24 l -95.59,68.74 c -1.01,-1.12 -2.42,-1.71 -3.86,-1.71 -1.07,0 -2.15,0.33 -3.08,1.02 -1.11,0.82 -1.84,2.03 -2.04,3.4 -0.2,1.37 0.14,2.74 0.97,3.85 z m 0.02,-3.7 c 0.16,-1.11 0.75,-2.08 1.65,-2.75 1.85,-1.38 4.48,-0.99 5.85,0.86 0.67,0.9 0.95,2.01 0.78,3.11 -0.16,1.11 -0.75,2.08 -1.64,2.75 -0.73,0.54 -1.6,0.83 -2.49,0.83 -0.21,0 -0.41,-0.02 -0.62,-0.05 -1.11,-0.16 -2.08,-0.75 -2.75,-1.64 -0.67,-0.9 -0.94,-2.01 -0.78,-3.11 z"
   id="path125" />
			<path
   style="fill:#84cc16;fill-opacity:1"
   d="m 490.91,224.1 c 1.71,2.3 4.96,2.78 7.26,1.08 2.15,-1.6 2.68,-4.56 1.33,-6.82 L 600,145.94 v -1.23 l -101.08,72.83 c -1.01,-1.12 -2.42,-1.71 -3.85,-1.71 -1.08,0 -2.16,0.33 -3.09,1.02 -2.29,1.7 -2.77,4.96 -1.07,7.25 z m 1.67,-6.45 c 1.85,-1.37 4.48,-0.98 5.85,0.87 1.38,1.85 0.99,4.48 -0.86,5.85 -1.85,1.38 -4.48,0.99 -5.86,-0.86 -1.37,-1.85 -0.98,-4.48 0.87,-5.86 z"
   id="path127" />
			<path
   style="fill:#84cc16;fill-opacity:1"
   d="m 547.02,256.9 c 1.71,2.3 4.96,2.78 7.26,1.08 2.15,-1.6 2.68,-4.56 1.33,-6.82 L 600,219.17 v -1.23 l -44.97,32.4 c -1.01,-1.12 -2.42,-1.71 -3.85,-1.71 -1.08,0 -2.16,0.33 -3.09,1.02 -2.29,1.7 -2.77,4.96 -1.07,7.25 z m 1.67,-6.45 c 1.85,-1.37 4.48,-0.98 5.85,0.87 1.38,1.85 0.99,4.48 -0.86,5.85 -1.85,1.38 -4.48,0.99 -5.86,-0.86 -1.37,-1.85 -0.98,-4.48 0.87,-5.86 z"
   id="path129" />
			<path
   style="fill:#84cc16;fill-opacity:1"
   d="m 439.93,110.24 c 1.7,2.3 4.96,2.78 7.25,1.07 1.11,-0.82 1.84,-2.03 2.04,-3.4 v -0.01 l 11.67,0.57 L 600,8.62 V 7.38 L 460.59,107.45 449.27,106.9 c -0.05,-1.02 -0.39,-2 -1.02,-2.84 -1.01,-1.37 -2.58,-2.09 -4.16,-2.09 -1.08,0 -2.16,0.33 -3.09,1.02 -2.29,1.7 -2.78,4.95 -1.07,7.25 z m 1.67,-6.45 c 1.85,-1.38 4.48,-0.99 5.85,0.86 0.67,0.9 0.95,2.01 0.78,3.11 -0.16,1.11 -0.75,2.08 -1.64,2.75 -0.75,0.56 -1.63,0.82 -2.49,0.82 -1.28,0 -2.55,-0.58 -3.37,-1.69 -1.37,-1.85 -0.99,-4.48 0.87,-5.85 z"
   id="path131" />
			<path
   style="fill:#84cc16;fill-opacity:1"
   d="m 400.54,116.14 c 0.83,1.11 2.04,1.84 3.41,2.04 1.37,0.2 2.74,-0.14 3.85,-0.97 2.16,-1.6 2.69,-4.56 1.33,-6.82 l 39.91,-29.63 24.37,3.6 0.2,0.03 L 591.56,0 h -1.72 l -116.48,83.34 -24.58,-3.63 -40.23,29.86 c -1.01,-1.11 -2.42,-1.7 -3.85,-1.7 -1.07,0 -2.16,0.33 -3.08,1.01 -2.3,1.71 -2.78,4.96 -1.08,7.26 z m 1.67,-6.45 c 1.85,-1.38 4.48,-0.99 5.86,0.86 1.37,1.86 0.99,4.48 -0.87,5.86 -0.73,0.54 -1.59,0.82 -2.48,0.82 -0.21,0 -0.42,-0.01 -0.62,-0.04 -1.11,-0.16 -2.09,-0.75 -2.75,-1.65 -1.38,-1.85 -0.99,-4.48 0.86,-5.85 z"
   id="path133" />
			<path
   style="fill:#84cc16;fill-opacity:1"
   d="m 370.52,75.7 c 0.83,1.11 2.04,1.84 3.41,2.04 1.37,0.2 2.73,-0.14 3.85,-0.97 2.15,-1.6 2.68,-4.56 1.33,-6.82 l 39.91,-29.63 24.37,3.6 0.2,0.03 L 505.02,0 h -1.72 l -59.96,42.9 -24.59,-3.63 -40.22,29.87 c -1.01,-1.12 -2.42,-1.71 -3.85,-1.71 -1.08,0 -2.16,0.33 -3.09,1.02 -2.29,1.7 -2.77,4.96 -1.07,7.25 z m 1.67,-6.45 c 1.85,-1.38 4.48,-0.99 5.86,0.86 1.37,1.86 0.98,4.48 -0.87,5.86 -0.73,0.54 -1.59,0.83 -2.49,0.83 -0.2,0 -0.41,-0.02 -0.62,-0.05 -1.1,-0.16 -2.08,-0.75 -2.74,-1.65 -1.38,-1.85 -0.99,-4.47 0.86,-5.85 z"
   id="path135" />
			<path
   style="fill:#84cc16;fill-opacity:1"
   d="m 476.26,159.17 c 1.7,2.3 4.96,2.78 7.25,1.07 1.11,-0.82 1.84,-2.03 2.04,-3.4 0.2,-1.37 -0.14,-2.74 -0.97,-3.85 -0.63,-0.86 -1.49,-1.46 -2.43,-1.79 L 484.9,140.21 600,57.58 v -1.23 l -115.83,83.15 -0.15,0.11 -2.84,11.35 c -0.25,-0.04 -0.51,-0.06 -0.77,-0.06 -1.07,0 -2.16,0.33 -3.08,1.02 -2.3,1.7 -2.78,4.96 -1.07,7.25 z m 1.66,-6.45 c 1.86,-1.38 4.48,-0.99 5.86,0.86 0.67,0.9 0.94,2.01 0.78,3.11 -0.16,1.11 -0.75,2.08 -1.65,2.75 -0.74,0.56 -1.62,0.82 -2.49,0.82 -1.28,0 -2.54,-0.58 -3.36,-1.68 -1.38,-1.86 -0.99,-4.48 0.86,-5.86 z"
   id="path137" />
			<path
   style="fill:#84cc16;fill-opacity:1"
   d="m 533.89,226.41 c 1.71,2.29 4.96,2.77 7.26,1.07 1.11,-0.83 1.83,-2.04 2.04,-3.41 0.2,-1.37 -0.14,-2.73 -0.97,-3.85 -0.62,-0.84 -1.47,-1.45 -2.43,-1.79 l 2.75,-10.99 57.46,-41.25 v -1.23 l -58.2,41.78 -0.14,0.1 -2.84,11.35 c -0.26,-0.04 -0.52,-0.06 -0.77,-0.06 -1.11,0 -2.18,0.35 -3.08,1.02 -2.3,1.71 -2.78,4.96 -1.08,7.26 z m 1.67,-6.46 c 0.9,-0.66 2,-0.94 3.11,-0.78 1.1,0.17 2.08,0.75 2.75,1.65 0.66,0.9 0.94,2 0.78,3.11 -0.17,1.1 -0.75,2.08 -1.65,2.74 -0.75,0.56 -1.62,0.83 -2.49,0.83 -1.28,0 -2.54,-0.59 -3.36,-1.69 -1.38,-1.85 -0.99,-4.48 0.86,-5.86 z"
   id="path139" />
			<path
   style="fill:#84cc16;fill-opacity:1"
   d="m 573.89,271.45 c 1.71,2.29 4.96,2.77 7.26,1.07 1.11,-0.83 1.83,-2.04 2.04,-3.41 0.2,-1.37 -0.14,-2.73 -0.97,-3.85 -0.62,-0.84 -1.47,-1.45 -2.43,-1.79 l 2.75,-10.99 17.46,-12.53 v -1.24 l -18.2,13.07 -0.14,0.1 -2.84,11.35 c -0.26,-0.04 -0.52,-0.06 -0.77,-0.06 -1.11,0 -2.18,0.35 -3.08,1.02 -2.3,1.71 -2.78,4.96 -1.08,7.26 z m 1.67,-6.46 c 0.9,-0.66 2,-0.94 3.11,-0.78 1.1,0.17 2.08,0.75 2.75,1.65 0.66,0.9 0.94,2 0.78,3.11 -0.17,1.1 -0.75,2.08 -1.65,2.74 -0.75,0.56 -1.62,0.83 -2.49,0.83 -1.28,0 -2.54,-0.59 -3.36,-1.69 -1.38,-1.85 -0.99,-4.48 0.86,-5.86 z"
   id="path141" />
			<path
   style="fill:#84cc16;fill-opacity:1"
   d="m 380.02,17.37 c 1.71,2.3 4.96,2.78 7.26,1.08 2.15,-1.6 2.68,-4.56 1.33,-6.82 L 404.75,0 h -1.72 l -15,10.81 c -1.01,-1.12 -2.42,-1.71 -3.85,-1.71 -1.08,0 -2.16,0.33 -3.09,1.02 -2.29,1.7 -2.77,4.96 -1.07,7.25 z m 1.67,-6.45 c 1.85,-1.37 4.48,-0.98 5.85,0.87 1.38,1.85 0.99,4.48 -0.86,5.85 -1.85,1.38 -4.48,0.99 -5.86,-0.86 -1.37,-1.85 -0.98,-4.48 0.87,-5.86 z"
   id="path143" />
			<path
   style="fill:#84cc16;fill-opacity:1"
   d="m 345.91,11.9 c 1.71,2.3 4.96,2.78 7.26,1.08 2.15,-1.6 2.68,-4.56 1.33,-6.82 L 363.05,0 h -1.72 l -7.41,5.34 c -1.01,-1.12 -2.42,-1.71 -3.85,-1.71 -1.08,0 -2.16,0.33 -3.09,1.02 -2.29,1.7 -2.77,4.96 -1.07,7.25 z m 1.67,-6.45 c 1.85,-1.37 4.48,-0.98 5.85,0.87 1.38,1.85 0.99,4.48 -0.86,5.85 -1.85,1.38 -4.48,0.99 -5.86,-0.86 -1.37,-1.85 -0.98,-4.48 0.87,-5.86 z"
   id="path145" />
			<path
   style="fill:#84cc16;fill-opacity:1"
   d="m 406.89,31.91 c 1.71,2.29 4.96,2.77 7.26,1.07 1.11,-0.83 1.83,-2.04 2.04,-3.41 0.2,-1.37 -0.14,-2.73 -0.97,-3.85 -0.62,-0.84 -1.47,-1.45 -2.43,-1.79 L 415.54,12.94 433.57,0 h -1.72 l -17.05,12.24 -0.14,0.1 -2.84,11.35 c -0.26,-0.04 -0.52,-0.06 -0.77,-0.06 -1.11,0 -2.18,0.35 -3.08,1.02 -2.3,1.71 -2.78,4.96 -1.08,7.26 z m 1.67,-6.46 c 0.9,-0.66 2,-0.94 3.11,-0.78 1.1,0.17 2.08,0.75 2.75,1.65 0.66,0.9 0.94,2 0.78,3.11 -0.17,1.1 -0.75,2.08 -1.65,2.74 -0.75,0.56 -1.62,0.83 -2.49,0.83 -1.28,0 -2.54,-0.59 -3.36,-1.69 -1.38,-1.85 -0.99,-4.48 0.86,-5.86 z"
   id="path147" />
			<path
   style="fill:#84cc16;fill-opacity:1"
   d="m 461.99,198.9 c 0.82,1.11 2.03,1.83 3.4,2.04 1.36,0.2 2.74,-0.14 3.85,-0.97 1.11,-0.83 1.84,-2.03 2.04,-3.4 0.18,-1.21 -0.09,-2.4 -0.71,-3.42 l 39.3,-29.18 4.28,-25.66 L 600,76.89 v -1.23 l -86.6,61.96 -0.16,0.12 -4.29,25.67 -38.96,28.92 c -1.01,-1.11 -2.42,-1.71 -3.85,-1.71 -1.07,0 -2.15,0.34 -3.08,1.02 -1.11,0.83 -1.84,2.04 -2.04,3.41 -0.2,1.37 0.14,2.74 0.97,3.85 z m 0.02,-3.71 c 0.16,-1.1 0.75,-2.08 1.64,-2.74 1.86,-1.38 4.48,-0.99 5.86,0.86 0.67,0.9 0.94,2 0.78,3.11 -0.16,1.1 -0.75,2.08 -1.65,2.75 -0.73,0.54 -1.59,0.82 -2.48,0.82 -0.21,0 -0.42,-0.01 -0.62,-0.04 -1.11,-0.17 -2.08,-0.75 -2.75,-1.65 -0.67,-0.9 -0.94,-2 -0.78,-3.11 z"
   id="path149" />
		</g>
	</g></g>
</svg>
